<svg width="1100" height="260" viewBox="0 0 1100 260" fill="none" xmlns="http://www.w3.org/2000/svg" role="img" aria-label="Bupples project card">
  <defs>
    <linearGradient id="card" x1="0" y1="0" x2="1100" y2="260" gradientUnits="userSpaceOnUse">
      <stop stop-color="#0D1525"/>
      <stop offset="0.65" stop-color="#0A1322"/>
      <stop offset="1" stop-color="#073D5A"/>
    </linearGradient>
    <radialGradient id="glow" cx="88%" cy="20%" r="70%">
      <stop stop-color="#13B9FD" stop-opacity="0.22"/>
      <stop offset="0.48" stop-color="#13B9FD" stop-opacity="0.06"/>
      <stop offset="1" stop-color="#13B9FD" stop-opacity="0"/>
    </radialGradient>
    <filter id="shadow" x="-20%" y="-30%" width="140%" height="160%">
      <feDropShadow dx="0" dy="16" stdDeviation="15" flood-color="#000000" flood-opacity="0.32"/>
    </filter>
  </defs>
  <rect width="1100" height="260" rx="34" fill="#070B14"/>
  <rect x="22" y="22" width="1056" height="216" rx="30" fill="url(#card)" stroke="#1E3A52" filter="url(#shadow)"/>
  <rect x="22" y="22" width="1056" height="216" rx="30" fill="url(#glow)"/>
  <text x="72" y="88" fill="#F1F5F9" font-family="Inter, Segoe UI, Arial, sans-serif" font-size="38" font-weight="900">💸 Bupples</text>
  <text x="72" y="133" fill="#B7C9DA" font-family="Inter, Segoe UI, Arial, sans-serif" font-size="22" font-weight="600">Group expense-splitting app with real-time sync for iOS &amp; Android.</text>
  <text x="72" y="162" fill="#64748B" font-family="Inter, Segoe UI, Arial, sans-serif" font-size="18" font-weight="600">Tap to open</text>
  
  <rect x="72" y="188" width="85" height="32" rx="16" fill="#0B1220" stroke="#1D3A54"/>
  <circle cx="88" cy="204" r="5" fill="#13B9FD"/>
  <text x="101" y="209" fill="#A8BED3" font-family="Inter, Segoe UI, Arial, sans-serif" font-size="15" font-weight="700">Flutter</text>
  <rect x="168.8" y="188" width="93" height="32" rx="16" fill="#0B1220" stroke="#1D3A54"/>
  <circle cx="184.8" cy="204" r="5" fill="#13B9FD"/>
  <text x="197.8" y="209" fill="#A8BED3" font-family="Inter, Segoe UI, Arial, sans-serif" font-size="15" font-weight="700">Supabase</text>
  <rect x="274.0" y="188" width="93" height="32" rx="16" fill="#0B1220" stroke="#1D3A54"/>
  <circle cx="290.0" cy="204" r="5" fill="#13B9FD"/>
  <text x="303.0" y="209" fill="#A8BED3" font-family="Inter, Segoe UI, Arial, sans-serif" font-size="15" font-weight="700">Firebase</text>
  <rect x="379.2" y="188" width="135" height="32" rx="16" fill="#0B1220" stroke="#1D3A54"/>
  <circle cx="395.2" cy="204" r="5" fill="#13B9FD"/>
  <text x="408.2" y="209" fill="#A8BED3" font-family="Inter, Segoe UI, Arial, sans-serif" font-size="15" font-weight="700">iOS + Android</text>
</svg>
