<svg xmlns="http://www.w3.org/2000/svg" width="136" height="58" viewBox="0 0 136 58" role="img"><title>Email</title><rect width="136" height="58" rx="12" fill="#0a0a0b"/><rect x="1" y="1" width="134" height="56" rx="10" fill="#101012" stroke="#9bcfa5" stroke-opacity=".55"/><path fill="#f2efe9" d="M20.459990234375 36.0V22.0H29.27100341796875V23.9660302734375H22.6240234375V27.97098388671875H28.71100341796875V29.93701416015625H22.6240234375V34.0339697265625H29.377004394531248V36.0Z M31.7059912109375 36.0V26.1499951171875H33.7240234375V27.299990234375002H34.0420263671875Q34.316025390625 26.7859912109375 34.93702392578125 26.380993652343747Q35.5580224609375 25.97599609375 36.6220166015625 25.97599609375Q37.724013671875 25.97599609375 38.39551147460938 26.431492919921872Q39.06700927734375 26.88698974609375 39.400009765625 27.5819873046875H39.7180126953125Q40.0580126953125 26.899990234375 40.71301025390625 26.437993164062497Q41.3680078125 25.97599609375 42.56400390625 25.97599609375Q43.512001953125 25.97599609375 44.25850219726563 26.37299560546875Q45.00500244140625 26.7699951171875 45.444503173828124 27.53899658203125Q45.88400390625 28.307998046875 45.88400390625 29.43100341796875V36.0H43.8259716796875V29.5900048828125Q43.8259716796875 28.69301025390625 43.33247680664063 28.206015625Q42.83898193359375 27.71902099609375 41.9459912109375 27.71902099609375Q40.980998535156246 27.71902099609375 40.40250610351562 28.33901611328125Q39.824013671875 28.95901123046875 39.824013671875 30.1260009765625V36.0H37.7659814453125V29.5900048828125Q37.7659814453125 28.69301025390625 37.27248657226562 28.206015625Q36.77899169921875 27.71902099609375 35.8860009765625 27.71902099609375Q34.92100830078125 27.71902099609375 34.34251586914063 28.33901611328125Q33.7640234375 28.95901123046875 33.7640234375 30.1260009765625V36.0Z M51.89099365234375 36.28Q50.84499267578125 36.28 50.008492431640626 35.91699951171875Q49.1719921875 35.5539990234375 48.68549194335938 34.854498291015624Q48.19899169921875 34.15499755859375 48.19899169921875 33.15599609375Q48.19899169921875 32.1499951171875 48.68549194335938 31.477493896484376Q49.1719921875 30.80499267578125 50.02449340820313 30.465491943359375Q50.87699462890625 30.1259912109375 51.95499755859375 30.1259912109375H54.96897705078125V29.48899658203125Q54.96897705078125 28.62100830078125 54.44498291015625 28.097513427734373Q53.92098876953125 27.5740185546875 52.8419970703125 27.5740185546875Q51.78300537109375 27.5740185546875 51.221512451171876 28.074013671875Q50.66001953125 28.5740087890625 50.4780224609375 29.38699951171875L48.563994140625 28.76098876953125Q48.803994140625 27.9659912109375 49.33049438476563 27.314992675781248Q49.85699462890625 26.663994140625 50.736495361328124 26.26699462890625Q51.61599609375 25.8699951171875 52.867998046875 25.8699951171875Q54.7860009765625 25.8699951171875 55.88050415039062 26.84299560546875Q56.97500732421875 27.81599609375 56.97500732421875 29.62699951171875V33.683974609375Q56.97500732421875 34.283974609375 57.53500732421875 34.283974609375H58.38400390625V36.0H56.843994140625Q56.1459912109375 36.0 55.707988281249996 35.63650024414062Q55.2699853515625 35.27300048828125 55.2699853515625 34.65900146484375V34.59700439453125H54.95298095703125Q54.8099853515625 34.90699951171875 54.48448852539063 35.30749877929688Q54.15899169921875 35.707998046875 53.5379931640625 35.993999023437496Q52.91699462890625 36.28 51.89099365234375 36.28ZM52.20500244140625 34.5759765625Q53.43299072265625 34.5759765625 54.200983886718745 33.86698486328125Q54.96897705078125 33.1579931640625 54.96897705078125 31.9260107421875V31.71201171875H52.07900146484375Q51.260009765625 31.71201171875 50.75851684570313 32.06450805664062Q50.25702392578125 32.41700439453125 50.25702392578125 33.09699462890625Q50.25702392578125 33.77698486328125 50.77851684570312 34.17648071289062Q51.300009765625 34.5759765625 52.20500244140625 34.5759765625Z M60.3859912109375 36.0V26.1499951171875H62.4440234375V36.0ZM61.41500732421875 24.8080078125Q60.819001464843744 24.8080078125 60.40849731445312 24.41700439453125Q59.9979931640625 24.0260009765625 59.9979931640625 23.403994140625002Q59.9979931640625 22.77498779296875 60.40849731445312 22.387484130859377Q60.819001464843744 21.99998046875 61.41500732421875 21.99998046875Q62.03101318359375 21.99998046875 62.431517333984374 22.387484130859377Q62.832021484375 22.77498779296875 62.832021484375 23.403994140625002Q62.832021484375 24.0260009765625 62.431517333984374 24.41700439453125Q62.03101318359375 24.8080078125 61.41500732421875 24.8080078125Z M65.5059912109375 36.0V22.0H67.5640234375V36.0Z"/><path d="M99 36l13-13m-12 0h12v12" fill="none" stroke="#f2efe9" stroke-width="1.5"/></svg>